<svg width="192" height="192" viewBox="0 0 192 192" fill="none" xmlns="http://www.w3.org/2000/svg">
  <rect width="192" height="192" rx="32" fill="url(#gradient)"/>
  <circle cx="96" cy="96" r="60" fill="white" opacity="0.2"/>
  <path d="M96 46C111.464 46 124 58.536 124 74C124 89.464 111.464 102 96 102C80.536 102 68 89.464 68 74C68 58.536 80.536 46 96 46Z" fill="white"/>
  <path d="M96 116C111.464 116 124 128.536 124 144C124 159.464 111.464 172 96 172C80.536 172 68 159.464 68 144C68 128.536 80.536 116 96 116Z" fill="white"/>
  <defs>
    <linearGradient id="gradient" x1="0%" y1="0%" x2="100%" y2="100%">
      <stop offset="0%" style="stop-color:#00c6ff"/>
      <stop offset="100%" style="stop-color:#0072ff"/>
    </linearGradient>
  </defs>
</svg>